M48
;Layer_Color=9474304
;FILE_FORMAT=2:4
INCH,TZ
;TYPE=PLATED
T1F00S00C0.0098
T2F00S00C0.0118
T3F00S00C0.0157
T4F00S00C0.0197
T5F00S00C0.0236
T6F00S00C0.0276
T7F00S00C0.0315
T8F00S00C0.0354
T9F00S00C0.0413
T10F00S00C0.1378
;TYPE=NON_PLATED
T12F00S00C0.0394
%
T01
X11044Y11641
X11360Y11638
X12134Y11640
X12303Y12894
X12795
X13287
X11811
T02
X24803Y787
X25591
X26378
X26280Y1575
X26772Y1575
X27953Y787
X28740
X29528
X29921Y1575
X30709
X31102Y2362
X30315
X30709Y3150
X31102Y3937
X30315
X30709Y4724
X29921
X29770Y5750
X29134Y1575
X31102Y787
X24016
X23228
X22441
X21654
X20866
X20079
X19200Y1330
X18110Y1575
X18406Y787
X16285Y815
X15128Y1338
X14859Y2279
X14282Y1978
X14173Y2854
X14862Y3543
X16240
X16535Y4724
X18110
X17984Y3254
X17669Y3248
X17177Y2334
X17338Y2042
X16853Y2106
X14186Y864
X12908Y991
X12838Y1528
X11189Y1474
X10039Y1476
X9440Y1869
X9280Y735
X10630Y787
X9771Y2837
X10236Y4724
X13565Y6043
X14214Y5969
X23228Y5512
X22450Y3128
X22505Y2766
X22835Y1575
X23622
X24409
X24016Y2362
X22047Y1575
X21260
X8422Y1707
X8120Y725
X6960
X5800
X5118Y1378
X6651Y1733
X3543Y787
X2756
X1969
X1181
X1575Y1575
X2362
X1969Y2362
X1181
X394
X787Y3150
X394Y3937
X787Y4724
X2071Y3218
X787Y1575
X1181Y14961
X1969
X2756
X3320Y15010
X3937Y15748
X5118Y14961
X5906
X6693
X7579Y14370
Y14075
Y13780
X8420Y13300
X8395Y12847
X8692Y12856
X8647Y14174
X8465Y14468
X8268Y14665
X8197Y11317
X7640Y11540
X8760Y9941
X8268Y9449
X394Y14961
X787Y15748
X10236
X11811
X12598
X13386
X12992Y14961
X12205
X12725Y14280
X13386Y14173
X14173
X14468Y13681
X14970Y12310
X15484Y11508
X15354Y10925
X16092Y11639
X16072Y12060
X16459Y12057
X18110Y12598
X17717Y13386
Y14961
X18504
X20079
X20472Y14173
X19685
X19989Y13857
X20079Y13386
X20866Y12992
Y12598
Y12205
Y11811
X21260
X21654
Y12205
X21260
Y12598
X21654
Y12992
X21260
X22441Y13386
X23228
X22835Y14173
X22047
X22441Y14961
X23228
X22835Y15748
X22047
X21260
X21654Y14961
X24409Y15748
X24311Y12598
X24409Y11024
Y9449
X23622
X22835
X22441Y11811
X24409Y7874
Y6299
X20080Y6240
X20079Y7185
X18898Y7874
X18110
X17323
X16351Y8260
X16043Y8760
X16020Y7460
X15615Y6114
X13879Y6061
X13122Y6353
X12940Y6610
X12673Y7397
X13681Y6988
X12205Y8661
X12598Y9449
X11024
X10700Y10120
X10180Y9760
X9547Y11122
X9918Y11549
X10006Y13174
X10124Y13542
X10433Y13878
X8858Y13976
X11750Y11000
X13947Y11143
X14070Y10450
X17323Y9449
X18110
X18898Y6299
X17323
X11150Y6340
X10728Y6339
X10630Y7087
X26772Y7874
Y9449
X25984
X25197
X25984Y11024
X25689Y12795
X25731Y13198
X25637Y13600
X25542Y14094
X26101Y14189
X25984Y15748
X26772
X27559
X28346
X29921
X30709
X31496
X31102Y14961
X31496Y14173
X30709
X29921
X29528Y14961
X31102Y13386
X31496Y12598
X30709
X30315Y11827
X29326Y11144
X29129Y9155
X29921Y9449
X30709
X30315Y7087
X29528
X29370Y6730
X29150Y7240
X29921Y6299
X30709
X25197Y15748
T03
X1930Y12480
X14970Y14140
T04
X8924Y2528
X14764Y4429
X8680Y2770
X7430Y3810
X11110Y15600
T05
X1961Y15529
X7677Y12894
X10039Y9055
Y8465
Y7874
X10630
X11220
Y8465
X10630
Y9055
X11220
X20112Y8909
X21063Y9449
X20768Y9941
T06
X27953Y1772
X20079
X12205
X4331
X2559Y12992
X29724
T07
X4677Y15748
X5677
X6677
X7677
X8677
X9677
T08
X25300Y1450
Y2450
Y3450
Y4450
T09
X23813Y6498
X23813Y7679
Y8860
Y10041
X24994
Y8860
Y7679
Y6498
T10
X29920Y8269
T12
X25368Y5317
Y11222
M30
